<svg id="mini-logo" xmlns="http://www.w3.org/2000/svg" width="84.901" height="138.505" viewBox="0 0 84.901 138.505">
  <path id="Path_6" data-name="Path 6" d="M639.581,775.915c-6.325,0-11.011-2.725-15.151-7.665v34.666c4.14-4.941,8.826-7.665,15.151-7.665h11V775.923h-11Z" transform="translate(-624.43 -768.242)" fill="#d1915c"/>
  <path id="Path_7" data-name="Path 7" d="M713.066,775.913H699.54v8.765a10.568,10.568,0,0,0,10.569,10.57h2.957c6.325,0,11.011,2.725,15.151,7.665V768.24C724.077,773.188,719.4,775.913,713.066,775.913Z" transform="translate(-643.316 -768.24)" fill="#d1915c"/>
  <path id="Path_8" data-name="Path 8" d="M675.212,809.677H664.74v76.046a32.439,32.439,0,0,0,2.6,12.748,33.835,33.835,0,0,0,7.321,10.861,32.663,32.663,0,0,0,12.12,7.83V817.627a7.958,7.958,0,0,0-7.957-7.957h-3.608Z" transform="translate(-634.566 -778.657)" fill="#d1915c"/>
  <path id="Path_9" data-name="Path 9" d="M678.82,778.487H664.74v19.328H678.82a7.958,7.958,0,0,0,7.957-7.957V778.48H678.82Z" transform="translate(-634.566 -770.815)" fill="#d1915c"/>
</svg>
