<svg xmlns="http://www.w3.org/2000/svg" width="124.291" height="154.219" viewBox="0 0 124.291 154.219">
  <g id="mobile-nums-img" transform="translate(-1083.373 803.687)">
    <path id="Path_98" data-name="Path 98" d="M-1718.552,2147.287q18.495,0,36.988,0c6.17,0,10.18,4.031,10.185,10.238.007,9.43.02,18.86-.025,28.29a1.694,1.694,0,0,0,1.288,1.895c18.056,7.144,29.549,24.2,28.457,43.541-1.068,18.9-10.815,32.161-28.215,39.671a2.113,2.113,0,0,0-1.528,2.358c.055,6.062.036,12.125.022,18.187-.014,5.957-4.108,10.034-10.08,10.034q-37.142.008-74.285,0c-6.06,0-10.129-4.069-10.13-10.139q-.006-66.995,0-133.99c0-6.043,4.088-10.083,10.181-10.085Q-1737.123,2147.282-1718.552,2147.287Zm8.91,24.874c-3.336,0-6.172.04-9.005-.021a3.053,3.053,0,0,0-2.438,1q-14.416,14.487-28.9,28.905a3.12,3.12,0,0,0-.988,2.443q.035,40.181.018,80.363v1.6h64.572v-12.19c-23,.135-43.194-18.185-44.6-42.26a43.106,43.106,0,0,1,8.034-28.281c8.944-12.516,21.336-18.689,36.565-19.218V2172.16c-5.046,0-10.008-.041-14.968.043a3.6,3.6,0,0,0-2.251.952c-6.527,6.439-13,12.94-19.482,19.423-.393.394-.8.768-.98.935l-3.682-3.3Zm-16.446,57.078a39.821,39.821,0,0,0,39.576,39.928,39.864,39.864,0,0,0,40-39.834,39.831,39.831,0,0,0-39.587-39.76A39.815,39.815,0,0,0-1726.088,2229.239Zm44.763,44.654c0,4.765,0,9.423,0,14.08,0,2.854-.725,3.58-3.575,3.581h-67.453c-2.855,0-3.576-.721-3.576-3.576q0-27.283,0-54.565,0-31.481,0-62.961c0-2.323.824-3.259,2.948-3.26q34.349-.014,68.7,0c2.032,0,2.934.915,2.951,2.946.023,2.539.006,5.078.006,7.618q0,3.552,0,7.1l4.974.828v-1.38q0-13.447,0-26.895c0-3.318-1.863-5.143-5.235-5.143q-37.069,0-74.138,0c-3.336,0-5.176,1.854-5.176,5.2q0,66.924,0,133.849c0,3.352,1.839,5.212,5.167,5.214q37.146.006,74.293,0c3.234,0,5.083-1.874,5.089-5.134q.016-8.473,0-16.945c0-.442-.049-.885-.078-1.393Zm-69.495-101.648v23.168l23.165-23.168Z" transform="translate(2849.251 -2950.972)" fill="#f9e6c6"/>
    <path id="Path_99" data-name="Path 99" d="M-1691.437,2262.247l4.742-4.78,3.08,3.242-4.784,4.74Z" transform="translate(2805.717 -3015.406)" fill="#f9e6c6"/>
    <path id="Path_100" data-name="Path 100" d="M-1613.235,2292.1v14.759h5.3c3.883,0,7.766-.012,11.65,0,6.09.024,10.326,4.265,10.329,10.388a37.539,37.539,0,0,1-.264,6.5,9.6,9.6,0,0,1-9.553,7.959,112.724,112.724,0,0,1-13.333-.314,22.015,22.015,0,0,1-19.071-21.074c-.152-7.3-.167-14.607,0-21.9.268-11.392,10.045-21.039,21.427-21.329,2.846-.073,5.7-.063,8.543-.01a9.9,9.9,0,0,1,9.756,9.707q.07,2.716,0,5.437a9.893,9.893,0,0,1-9.764,9.7c-4.917.075-9.836.042-14.754.059C-1613.011,2291.979-1613.056,2292.019-1613.235,2292.1Zm9.817-20.028c-1.308,0-2.448-.055-3.581.01-8.618.487-15.932,7.727-16.177,16.35-.207,7.3-.226,14.616,0,21.915.31,9.991,10,17.856,19.715,16.237v-14.751c-3.2,0-6.306.013-9.407,0-3.367-.017-5.395-2.055-5.406-5.437-.014-4.456,0-8.912,0-13.369,0-4.266,1.784-6.062,6.02-6.064h8.837Zm5.111,39.472v15.213c.675,0,1.283,0,1.891,0,3.485-.022,5.473-2.009,5.494-5.5.009-1.5.024-3-.009-4.5a4.367,4.367,0,0,0-2.488-4.176A24.54,24.54,0,0,0-1598.307,2311.549Zm.021-39.445V2286.9a4.879,4.879,0,0,0,4.868-4.908q.066-2.486,0-4.974A4.889,4.889,0,0,0-1598.286,2272.1Z" transform="translate(2768.794 -3021.003)" fill="#f9e6c6"/>
    <path id="Path_101" data-name="Path 101" d="M-1666.019,2171.448v4.784h-9.78v-4.784Z" transform="translate(2796.572 -2965.102)" fill="#f9e6c6"/>
    <path id="Path_102" data-name="Path 102" d="M-1635.05,2176.293h-4.78v-4.809h4.78Z" transform="translate(2775.537 -2965.124)" fill="#f9e6c6"/>
  </g>
</svg>
