<svg xmlns="http://www.w3.org/2000/svg" width="123.435" height="123.452" viewBox="0 0 123.435 123.452">
  <g id="real-states-img" transform="translate(-1433.382 1113.825)">
    <path id="Path_65" data-name="Path 65" d="M-968.635,1037.888h49.181a3.029,3.029,0,0,1,1.286,2.883q-.039,21.635-.017,43.269v1.609h1.605q15.668,0,31.337,0c2.27,0,2.915.625,2.915,2.825q0,35.013,0,70.026c0,2.178-.632,2.82-2.78,2.82q-58.938,0-117.875.018a2.75,2.75,0,0,1-2.778-1.464v-104.63a2.782,2.782,0,0,1,2.789-1.456q15.786.043,31.572.016h1.5c0-.6,0-1.033,0-1.468,0-3.856.03-7.713-.018-11.568A3,3,0,0,1-968.635,1037.888Zm14.659,111.412c0-3.889-.01-7.618,0-11.348.007-1.813.657-2.477,2.463-2.483q7.471-.023,14.943,0c1.8.006,2.442.671,2.449,2.5.014,3.334,0,6.668,0,10,0,.427,0,.854,0,1.289h11.892V1041.98h-43.656V1149.3Zm-15.983-67.589h-1.2q-7.955,0-15.908,0c-2.077,0-2.763-.69-2.771-2.736q-.011-3.254,0-6.507c.007-2.055.688-2.733,2.765-2.735q7.894-.009,15.787,0h1.3v-3.841h-23.7v91.371h17.8c0-1.785-.006-3.5,0-5.219.008-2,.662-2.65,2.685-2.675,1.064-.013,2.129,0,3.21,0V1145.4h-1.4q-7.894,0-15.788,0c-1.983,0-2.661-.7-2.668-2.7-.008-2.089,0-4.178,0-6.266,0-2.4.6-3,2.986-3q7.713-.006,15.426,0h1.451v-3.945h-1.375q-7.954,0-15.908,0c-1.839,0-2.564-.733-2.577-2.557-.015-2.169-.006-4.339,0-6.508,0-2.287.633-2.912,2.958-2.913q7.773-.006,15.547,0h1.363v-3.939h-1.355q-7.713,0-15.426,0c-2.5,0-3.085-.576-3.086-3.024q0-3.012,0-6.026c0-2.3.63-2.935,2.934-2.937q7.833-.005,15.667,0c.421,0,.842-.044,1.234-.065v-3.868h-1.42c-5.262,0-10.525.008-15.788,0-1.9,0-2.614-.734-2.625-2.637-.011-2.129,0-4.258,0-6.387,0-2.324.621-2.956,2.911-2.957q7.833-.006,15.667,0c.424,0,.848-.037,1.306-.059Zm51.827,19.863h1.442q7.835,0,15.669,0c2.079,0,2.766.686,2.773,2.733q.011,3.194,0,6.388c0,2.217-.65,2.861-2.885,2.862q-7.835.006-15.669,0h-1.3v3.939h1.393q7.774,0,15.549,0c2.284,0,2.91.643,2.912,2.959q0,3.073,0,6.147c0,2.231-.642,2.873-2.869,2.875q-7.835.005-15.669,0h-1.322v3.945h1.5c5.223,0,10.446-.008,15.669,0,1.992.005,2.682.711,2.69,2.691.009,2.13,0,4.259,0,6.388,0,2.251-.627,2.888-2.845,2.889q-7.835.006-15.669,0h-1.424v3.958c1.128,0,2.12,0,3.112,0,2.269.013,2.864.605,2.868,2.856q0,2.51,0,5.012h17.844v-59.5h-23.772Zm-83.521-35.716v91.371h3.773v-91.371Zm111.428,31.845v59.522h3.833V1097.7Zm-26,55.743h-55.631v3.807h55.631Zm-53.768-91.728v-3.8h-31.687v3.8Zm83.614,28.035h-31.73v3.781h31.73Zm-99.389-12.136h15.792v-3.794h-15.792Zm.037,12.119v3.794h15.745v-3.794Zm-.042,19.712h15.784V1105.7h-15.784Zm83.445-3.763H-918.1v3.785h15.774ZM-970,1125.407v-3.792h-15.744v3.792Zm51.882-.022h15.754v-3.8h-15.754ZM-970,1141.326v-3.78h-15.73v3.78Zm67.684-3.812h-15.793v3.8h15.793Zm-43.8,11.764v-9.8h-3.851v9.8Zm4.114-9.806v9.8h3.881v-9.8Z" transform="translate(2439.144 -2151.713)" fill="#f9e6c6"/>
    <path id="Path_66" data-name="Path 66" d="M-857.223,1235.866c1.846,0,3.693-.017,5.539,0a2.106,2.106,0,0,1,2.4,2.361q.054,4.575,0,9.152c-.017,1.66-.795,2.418-2.47,2.429q-5.539.035-11.08,0a2.075,2.075,0,0,1-2.359-2.376q-.033-4.636,0-9.273c.013-1.558.739-2.267,2.305-2.29C-861,1235.846-859.11,1235.866-857.223,1235.866Zm-3.969,4.044v5.8h7.789v-5.8Z" transform="translate(2342.403 -2287.973)" fill="#f9e6c6"/>
    <path id="Path_67" data-name="Path 67" d="M-793.437,1235.867c1.847,0,3.693-.02,5.539.006,1.575.022,2.307.723,2.321,2.274q.041,4.7,0,9.393a2.011,2.011,0,0,1-2.219,2.266q-5.72.058-11.44,0a2.048,2.048,0,0,1-2.24-2.283q-.064-4.7,0-9.393c.022-1.519.827-2.237,2.378-2.255C-797.211,1235.849-795.324,1235.867-793.437,1235.867Zm-3.958,4.057v5.773h7.812v-5.773Z" transform="translate(2298.561 -2287.974)" fill="#f9e6c6"/>
    <path id="Path_68" data-name="Path 68" d="M-857.231,1063.406c1.847,0,3.694-.019,5.54.005,1.605.021,2.388.758,2.406,2.357q.054,4.636,0,9.272a2.084,2.084,0,0,1-2.338,2.31q-5.66.047-11.32,0a2.009,2.009,0,0,1-2.241-2.243q-.044-4.7,0-9.393a2.026,2.026,0,0,1,2.3-2.3C-861,1063.384-859.117,1063.406-857.231,1063.406Zm-3.957,4.069v5.772h7.822v-5.772Z" transform="translate(2342.404 -2169.271)" fill="#f9e6c6"/>
    <path id="Path_69" data-name="Path 69" d="M-793.474,1077.358c-1.847,0-3.693.021-5.54-.005-1.672-.023-2.447-.772-2.464-2.436q-.045-4.576,0-9.152a2.1,2.1,0,0,1,2.406-2.356q5.6-.031,11.2,0a2.021,2.021,0,0,1,2.3,2.3q.039,4.637,0,9.273c-.012,1.615-.742,2.342-2.367,2.369C-789.78,1077.382-791.627,1077.358-793.474,1077.358Zm3.9-9.858H-797.4v5.744h7.826Z" transform="translate(2298.554 -2169.267)" fill="#f9e6c6"/>
    <path id="Path_70" data-name="Path 70" d="M-857.265,1307.2c-1.846,0-3.693.014-5.54,0-1.664-.016-2.373-.688-2.386-2.322q-.037-4.637,0-9.272a2.038,2.038,0,0,1,2.28-2.331q5.659-.061,11.32,0a2.079,2.079,0,0,1,2.306,2.343q.058,4.636,0,9.273c-.021,1.587-.809,2.294-2.439,2.308C-853.572,1307.213-855.419,1307.2-857.265,1307.2Zm-3.927-4.037h7.809v-5.779h-7.809Z" transform="translate(2342.404 -2327.468)" fill="#f9e6c6"/>
    <path id="Path_71" data-name="Path 71" d="M-793.517,1307.2c-1.887,0-3.774.019-5.66-.006a2.031,2.031,0,0,1-2.3-2.2q-.074-4.756,0-9.513a2.007,2.007,0,0,1,2.191-2.2q5.78-.075,11.56,0a1.966,1.966,0,0,1,2.14,2.215q.044,4.757,0,9.514c-.015,1.479-.754,2.163-2.276,2.184C-789.744,1307.221-791.63,1307.2-793.517,1307.2Zm3.92-4.016v-5.843H-797.4v5.843Z" transform="translate(2298.562 -2327.469)" fill="#f9e6c6"/>
    <path id="Path_72" data-name="Path 72" d="M-857.237,1134.757c-1.887,0-3.773.019-5.66-.006-1.573-.021-2.28-.714-2.293-2.29q-.038-4.636,0-9.273c.012-1.609.73-2.345,2.373-2.361q5.539-.051,11.079,0a2.145,2.145,0,0,1,2.457,2.442q.046,4.515,0,9.031c-.016,1.743-.762,2.442-2.537,2.455C-853.624,1134.768-855.431,1134.758-857.237,1134.757Zm-3.951-9.857v5.819h7.8V1124.9Z" transform="translate(2342.404 -2208.781)" fill="#f9e6c6"/>
    <path id="Path_73" data-name="Path 73" d="M-793.507,1134.753c-1.847,0-3.693.014-5.539,0-1.63-.016-2.411-.72-2.431-2.313q-.06-4.635,0-9.272a2.077,2.077,0,0,1,2.313-2.334q5.659-.065,11.319,0c1.558.018,2.26.779,2.272,2.337q.036,4.636,0,9.273c-.013,1.628-.723,2.3-2.394,2.312C-789.814,1134.767-791.66,1134.753-793.507,1134.753Zm3.927-3.989v-5.843h-7.788v5.843Z" transform="translate(2298.56 -2208.777)" fill="#f9e6c6"/>
    <path id="Path_74" data-name="Path 74" d="M-793.527,1178.461c1.886,0,3.773-.02,5.659.007,1.589.023,2.282.7,2.294,2.279q.038,4.7,0,9.392a1.927,1.927,0,0,1-2.128,2.2q-5.779.066-11.559,0a2.008,2.008,0,0,1-2.214-2.278q-.06-4.636,0-9.272c.02-1.605.779-2.3,2.412-2.324C-797.22,1178.443-795.374,1178.46-793.527,1178.461Zm-3.844,4.007v5.864h7.77v-5.864Z" transform="translate(2298.559 -2248.462)" fill="#f9e6c6"/>
    <path id="Path_75" data-name="Path 75" d="M-857.266,1192.357c-1.846,0-3.693.026-5.539-.007-1.726-.031-2.376-.7-2.386-2.445q-.027-4.515,0-9.031c.011-1.74.671-2.4,2.408-2.412q5.539-.027,11.078,0c1.681.008,2.412.734,2.427,2.432q.042,4.516,0,9.031c-.017,1.688-.742,2.395-2.448,2.424C-853.573,1192.381-855.42,1192.357-857.266,1192.357Zm-3.9-9.894v5.869h7.776v-5.869Z" transform="translate(2342.401 -2248.459)" fill="#f9e6c6"/>
  </g>
</svg>
